{
    "asset": {
        "version": "2.0",
        "generator": "Open Asset Import Library (assimp v5.0.5eb040c7)"
    },
    "accessors": [
        {
            "bufferView": 0,
            "byteOffset": 0,
            "componentType": 5126,
            "count": 5766,
            "type": "VEC3",
            "max": [
                0.3777649998664856,
                1.1913189888000489,
                0.40710198879241946
            ],
            "min": [
                -0.3724220097064972,
                0.0028029999230057,
                -0.4286069869995117
            ]
        },
        {
            "bufferView": 1,
            "byteOffset": 0,
            "componentType": 5126,
            "count": 5766,
            "type": "VEC3",
            "max": [
                0.9998301863670349,
                0.9986467957496643,
                0.9996835589408875
            ],
            "min": [
                -0.9998088479042053,
                -1.0,
                -0.9999978542327881
            ]
        },
        {
            "bufferView": 2,
            "byteOffset": 0,
            "componentType": 5126,
            "count": 5766,
            "type": "VEC2",
            "max": [
                0.9996690154075623,
                0.9996700286865234
            ],
            "min": [
                0.00033000000985339284,
                0.010686993598937989
            ]
        },
        {
            "bufferView": 3,
            "byteOffset": 0,
            "componentType": 5125,
            "count": 30408,
            "type": "SCALAR",
            "max": [
                5765
            ],
            "min": [
                0
            ]
        }
    ],
    "buffers": [
        {
            "byteLength": 306144,
            "uri": "result.bin"
        }
    ],
    "bufferViews": [
        {
            "buffer": 0,
            "byteOffset": 0,
            "byteLength": 69192,
            "target": 34962
        },
        {
            "buffer": 0,
            "byteOffset": 69192,
            "byteLength": 69192,
            "target": 34962
        },
        {
            "buffer": 0,
            "byteOffset": 138384,
            "byteLength": 46128,
            "target": 34962
        },
        {
            "buffer": 0,
            "byteOffset": 184512,
            "byteLength": 121632,
            "target": 34963
        }
    ],
    "materials": [
        {
            "name": "DefaultMaterial",
            "pbrMetallicRoughness": {
                "baseColorFactor": [
                    0.6000000238418579,
                    0.6000000238418579,
                    0.6000000238418579,
                    1.0
                ],
                "metallicFactor": 0.0
            }
        },
        {
            "name": "PenguinMat",
            "pbrMetallicRoughness": {
                "baseColorFactor": [
                    0.6000000238418579,
                    0.6000000238418579,
                    0.6000000238418579,
                    1.0
                ],
                "metallicFactor": 0.0
            }
        }
    ],
    "meshes": [
        {
            "name": "Penguin_Cylinder",
            "primitives": [
                {
                    "mode": 4,
                    "material": 1,
                    "indices": 3,
                    "attributes": {
                        "POSITION": 0,
                        "NORMAL": 1,
                        "TEXCOORD_0": 2
                    }
                }
            ]
        }
    ],
    "nodes": [
        {
            "name": "input.obj",
            "children": [
                1
            ]
        },
        {
            "name": "Penguin_Cylinder",
            "mesh": 0
        }
    ],
    "scenes": [
        {
            "nodes": [
                0
            ]
        }
    ],
    "scene": 0
}